<svg width="621" height="259" viewBox="0 0 621 259" fill="none" xmlns="http://www.w3.org/2000/svg">
<path d="M256.567 137.606V168.546C255.541 168.826 253.907 169.106 251.667 169.386C249.427 169.666 247.234 169.806 245.087 169.806C242.941 169.806 241.027 169.62 239.347 169.246C237.761 168.966 236.407 168.406 235.287 167.566C234.167 166.726 233.327 165.56 232.767 164.066C232.207 162.573 231.927 160.613 231.927 158.186V84.2664C232.954 84.0798 234.587 83.8464 236.827 83.5664C239.067 83.1931 241.214 83.0064 243.267 83.0064C245.414 83.0064 247.281 83.1931 248.867 83.5664C250.547 83.8464 251.947 84.4064 253.067 85.2464C254.187 86.0864 255.027 87.2531 255.587 88.7464C256.147 90.2398 256.427 92.1998 256.427 94.6264V116.886L285.547 83.4264C291.894 83.4264 296.421 84.6398 299.127 87.0664C301.927 89.3998 303.327 92.1998 303.327 95.4664C303.327 97.8931 302.721 100.18 301.507 102.326C300.294 104.473 298.334 106.9 295.627 109.606L278.127 127.106C280.461 129.72 282.887 132.426 285.407 135.226C288.021 137.933 290.541 140.64 292.967 143.346C295.487 145.96 297.867 148.48 300.107 150.906C302.441 153.333 304.447 155.48 306.127 157.346C306.127 159.4 305.754 161.22 305.007 162.806C304.261 164.393 303.234 165.746 301.927 166.866C300.714 167.986 299.314 168.826 297.727 169.386C296.141 169.946 294.461 170.226 292.687 170.226C288.861 170.226 285.734 169.293 283.307 167.426C280.881 165.466 278.547 163.18 276.307 160.566L256.567 137.606ZM345.36 153.986C346.947 153.986 348.674 153.846 350.54 153.566C352.5 153.193 353.947 152.726 354.88 152.166V140.966L344.8 141.806C342.187 141.993 340.04 142.553 338.36 143.486C336.68 144.42 335.84 145.82 335.84 147.686C335.84 149.553 336.54 151.093 337.94 152.306C339.434 153.426 341.907 153.986 345.36 153.986ZM344.24 98.9664C349.28 98.9664 353.854 99.4798 357.96 100.506C362.16 101.533 365.707 103.12 368.6 105.266C371.587 107.32 373.874 109.98 375.46 113.246C377.047 116.42 377.84 120.2 377.84 124.586V155.946C377.84 158.373 377.14 160.38 375.74 161.966C374.434 163.46 372.847 164.766 370.98 165.886C364.914 169.526 356.374 171.346 345.36 171.346C340.414 171.346 335.934 170.88 331.92 169.946C328 169.013 324.594 167.613 321.7 165.746C318.9 163.88 316.707 161.5 315.12 158.606C313.627 155.713 312.88 152.353 312.88 148.526C312.88 142.086 314.794 137.14 318.62 133.686C322.447 130.233 328.374 128.086 336.4 127.246L354.74 125.286V124.306C354.74 121.6 353.527 119.686 351.1 118.566C348.767 117.353 345.36 116.746 340.88 116.746C337.334 116.746 333.88 117.12 330.52 117.866C327.16 118.613 324.127 119.546 321.42 120.666C320.207 119.826 319.18 118.566 318.34 116.886C317.5 115.113 317.08 113.293 317.08 111.426C317.08 109 317.64 107.086 318.76 105.686C319.974 104.193 321.794 102.933 324.22 101.906C326.927 100.88 330.1 100.133 333.74 99.6664C337.474 99.1998 340.974 98.9664 344.24 98.9664ZM389.453 135.086C389.453 128.926 390.386 123.606 392.253 119.126C394.119 114.553 396.686 110.773 399.953 107.786C403.313 104.8 407.186 102.606 411.573 101.206C416.053 99.7131 420.859 98.9664 425.993 98.9664C427.859 98.9664 429.679 99.1531 431.453 99.5264C433.226 99.8064 434.673 100.18 435.793 100.646V77.9664C436.726 77.6864 438.219 77.4064 440.273 77.1264C442.326 76.7531 444.426 76.5664 446.573 76.5664C448.626 76.5664 450.446 76.7064 452.033 76.9864C453.713 77.2664 455.113 77.8264 456.233 78.6664C457.353 79.5064 458.193 80.6731 458.753 82.1664C459.313 83.5664 459.593 85.4331 459.593 87.7664V154.126C459.593 158.513 457.539 162.013 453.433 164.626C450.726 166.4 447.226 167.94 442.933 169.246C438.639 170.646 433.693 171.346 428.093 171.346C422.026 171.346 416.566 170.506 411.713 168.826C406.953 167.146 402.893 164.72 399.533 161.546C396.266 158.373 393.746 154.593 391.973 150.206C390.293 145.726 389.453 140.686 389.453 135.086ZM429.213 117.586C424.173 117.586 420.299 119.033 417.593 121.926C414.886 124.82 413.533 129.206 413.533 135.086C413.533 140.873 414.793 145.26 417.313 148.246C419.833 151.14 423.473 152.586 428.233 152.586C429.913 152.586 431.406 152.353 432.713 151.886C434.113 151.326 435.186 150.72 435.933 150.066V119.266C434.066 118.146 431.826 117.586 429.213 117.586ZM510.404 171.346C504.897 171.346 499.764 170.6 495.004 169.106C490.337 167.52 486.23 165.186 482.684 162.106C479.23 159.026 476.477 155.153 474.424 150.486C472.464 145.82 471.484 140.36 471.484 134.106C471.484 127.946 472.464 122.673 474.424 118.286C476.477 113.806 479.137 110.166 482.404 107.366C485.67 104.473 489.404 102.373 493.604 101.066C497.804 99.6664 502.097 98.9664 506.484 98.9664C511.43 98.9664 515.91 99.7131 519.924 101.206C524.03 102.7 527.53 104.753 530.424 107.366C533.41 109.98 535.697 113.106 537.284 116.746C538.964 120.386 539.804 124.353 539.804 128.646C539.804 131.82 538.917 134.246 537.144 135.926C535.37 137.606 532.897 138.68 529.724 139.146L495.144 144.326C496.17 147.406 498.27 149.74 501.444 151.326C504.617 152.82 508.257 153.566 512.364 153.566C516.19 153.566 519.784 153.1 523.144 152.166C526.597 151.14 529.397 149.973 531.544 148.666C533.037 149.6 534.297 150.906 535.324 152.586C536.35 154.266 536.864 156.04 536.864 157.906C536.864 162.106 534.904 165.233 530.984 167.286C527.997 168.873 524.637 169.946 520.904 170.506C517.17 171.066 513.67 171.346 510.404 171.346ZM506.484 116.326C504.244 116.326 502.284 116.7 500.604 117.446C499.017 118.193 497.71 119.173 496.684 120.386C495.657 121.506 494.864 122.813 494.304 124.306C493.837 125.706 493.557 127.153 493.464 128.646L517.404 124.726C517.124 122.86 516.097 120.993 514.324 119.126C512.55 117.26 509.937 116.326 506.484 116.326ZM587.24 171.346C581.733 171.346 576.6 170.6 571.84 169.106C567.173 167.52 563.066 165.186 559.52 162.106C556.066 159.026 553.313 155.153 551.26 150.486C549.3 145.82 548.32 140.36 548.32 134.106C548.32 127.946 549.3 122.673 551.26 118.286C553.313 113.806 555.973 110.166 559.24 107.366C562.506 104.473 566.24 102.373 570.44 101.066C574.64 99.6664 578.933 98.9664 583.32 98.9664C588.266 98.9664 592.746 99.7131 596.76 101.206C600.866 102.7 604.366 104.753 607.26 107.366C610.246 109.98 612.533 113.106 614.12 116.746C615.8 120.386 616.64 124.353 616.64 128.646C616.64 131.82 615.753 134.246 613.98 135.926C612.206 137.606 609.733 138.68 606.56 139.146L571.98 144.326C573.006 147.406 575.106 149.74 578.28 151.326C581.453 152.82 585.093 153.566 589.2 153.566C593.026 153.566 596.62 153.1 599.98 152.166C603.433 151.14 606.233 149.973 608.38 148.666C609.873 149.6 611.133 150.906 612.16 152.586C613.186 154.266 613.7 156.04 613.7 157.906C613.7 162.106 611.74 165.233 607.82 167.286C604.833 168.873 601.473 169.946 597.74 170.506C594.006 171.066 590.506 171.346 587.24 171.346ZM583.32 116.326C581.08 116.326 579.12 116.7 577.44 117.446C575.853 118.193 574.546 119.173 573.52 120.386C572.493 121.506 571.7 122.813 571.14 124.306C570.673 125.706 570.393 127.153 570.3 128.646L594.24 124.726C593.96 122.86 592.933 120.993 591.16 119.126C589.386 117.26 586.773 116.326 583.32 116.326Z" fill="#DBB613"/>
<path d="M43.8306 47.5822L46.7347 48.7388C59.5619 53.8474 65.8191 68.3873 60.7105 81.2146L26.8819 166.154L23.9778 164.998C11.1505 159.889 4.89338 145.349 10.002 132.522L43.8306 47.5822Z" fill="#DBB613"/>
<path d="M169.961 99.8789L172.865 101.036C185.693 106.144 191.95 120.684 186.841 133.511L153.013 218.451L150.108 217.294C137.281 212.186 131.024 197.646 136.133 184.819L169.961 99.8789Z" fill="#DBB613"/>
<path d="M100.753 139.552L103.657 140.709C116.484 145.818 122.741 160.358 117.633 173.185L83.804 258.125L80.8999 256.968C68.0727 251.859 61.8155 237.319 66.9241 224.492L100.753 139.552Z" fill="#DBB613"/>
<path d="M62.877 117.829L65.7811 118.985C78.6083 124.094 84.8655 138.634 79.7568 151.461L45.9283 236.401L43.0242 235.244C30.1969 230.136 23.9398 215.596 29.0484 202.768L62.877 117.829Z" fill="#DBB613"/>
<path d="M109.467 0.845947L112.371 2.00256C125.199 7.11121 131.456 21.6511 126.347 34.4784L92.5186 119.418L89.6145 118.261C76.7873 113.153 70.5301 98.6129 75.6387 85.7856L109.467 0.845947Z" fill="#DBB613"/>
<path d="M148.697 18.8364L151.601 19.993C164.428 25.1017 170.686 39.6416 165.577 52.4688L131.748 137.409L128.844 136.252C116.017 131.143 109.76 116.603 114.868 103.776L148.697 18.8364Z" fill="#DBB613"/>
<path d="M490.94 213.451V210.325C490.94 196.518 502.133 185.325 515.94 185.325H607.368V188.451C607.368 202.258 596.175 213.451 582.368 213.451H490.94Z" fill="#DBB613"/>
</svg>
