<svg width="197" height="258" viewBox="0 0 197 258" fill="none" xmlns="http://www.w3.org/2000/svg">
<path d="M43.939 46.8491L46.8431 48.0057C59.6703 53.1144 65.9275 67.6543 60.8189 80.4815L26.9903 165.421L24.0862 164.265C11.2589 159.156 5.00178 144.616 10.1104 131.789L43.939 46.8491Z" fill="white"/>
<path d="M170.069 99.146L172.973 100.303C185.801 105.411 192.058 119.951 186.949 132.778L153.121 217.718L150.217 216.561C137.389 211.453 131.132 196.913 136.241 184.086L170.069 99.146Z" fill="white"/>
<path d="M100.861 138.819L103.765 139.975C116.593 145.084 122.85 159.624 117.741 172.451L83.9127 257.391L81.0085 256.234C68.1813 251.126 61.9241 236.586 67.0328 223.759L100.861 138.819Z" fill="white"/>
<path d="M62.9854 117.095L65.8895 118.252C78.7167 123.36 84.9739 137.9 79.8652 150.728L46.0367 235.667L43.1326 234.511C30.3053 229.402 24.0482 214.862 29.1568 202.035L62.9854 117.095Z" fill="white"/>
<path d="M109.576 0.112793L112.48 1.26941C125.307 6.37806 131.564 20.918 126.456 33.7452L92.627 118.685L89.7229 117.528C76.8957 112.42 70.6385 97.8797 75.7471 85.0525L109.576 0.112793Z" fill="white"/>
<path d="M148.806 18.103L151.71 19.2596C164.537 24.3683 170.794 38.9082 165.686 51.7355L131.857 136.675L128.953 135.519C116.126 130.41 109.868 115.87 114.977 103.043L148.806 18.103Z" fill="white"/>
</svg>
