<svg width="621" height="258" viewBox="0 0 621 258" fill="none" xmlns="http://www.w3.org/2000/svg">
<path d="M256.567 137.189V168.129C255.541 168.409 253.907 168.689 251.667 168.969C249.427 169.249 247.234 169.389 245.087 169.389C242.941 169.389 241.027 169.203 239.347 168.829C237.761 168.549 236.407 167.989 235.287 167.149C234.167 166.309 233.327 165.143 232.767 163.649C232.207 162.156 231.927 160.196 231.927 157.769V83.8495C232.954 83.6628 234.587 83.4294 236.827 83.1495C239.067 82.7761 241.214 82.5895 243.267 82.5895C245.414 82.5895 247.281 82.7761 248.867 83.1495C250.547 83.4294 251.947 83.9894 253.067 84.8294C254.187 85.6694 255.027 86.8361 255.587 88.3295C256.147 89.8228 256.427 91.7828 256.427 94.2095V116.469L285.547 83.0094C291.894 83.0094 296.421 84.2228 299.127 86.6494C301.927 88.9828 303.327 91.7828 303.327 95.0494C303.327 97.4761 302.721 99.7628 301.507 101.909C300.294 104.056 298.334 106.483 295.627 109.189L278.127 126.689C280.461 129.303 282.887 132.009 285.407 134.809C288.021 137.516 290.541 140.223 292.967 142.929C295.487 145.543 297.867 148.063 300.107 150.489C302.441 152.916 304.447 155.063 306.127 156.929C306.127 158.983 305.754 160.803 305.007 162.389C304.261 163.976 303.234 165.329 301.927 166.449C300.714 167.569 299.314 168.409 297.727 168.969C296.141 169.529 294.461 169.809 292.687 169.809C288.861 169.809 285.734 168.876 283.307 167.009C280.881 165.049 278.547 162.763 276.307 160.149L256.567 137.189ZM345.36 153.569C346.947 153.569 348.674 153.429 350.54 153.149C352.5 152.776 353.947 152.309 354.88 151.749V140.549L344.8 141.389C342.187 141.576 340.04 142.136 338.36 143.069C336.68 144.003 335.84 145.403 335.84 147.269C335.84 149.136 336.54 150.676 337.94 151.889C339.434 153.009 341.907 153.569 345.36 153.569ZM344.24 98.5494C349.28 98.5494 353.854 99.0628 357.96 100.089C362.16 101.116 365.707 102.703 368.6 104.849C371.587 106.903 373.874 109.563 375.46 112.829C377.047 116.003 377.84 119.783 377.84 124.169V155.529C377.84 157.956 377.14 159.963 375.74 161.549C374.434 163.043 372.847 164.349 370.98 165.469C364.914 169.109 356.374 170.929 345.36 170.929C340.414 170.929 335.934 170.463 331.92 169.529C328 168.596 324.594 167.196 321.7 165.329C318.9 163.463 316.707 161.083 315.12 158.189C313.627 155.296 312.88 151.936 312.88 148.109C312.88 141.669 314.794 136.723 318.62 133.269C322.447 129.816 328.374 127.669 336.4 126.829L354.74 124.869V123.889C354.74 121.183 353.527 119.269 351.1 118.149C348.767 116.936 345.36 116.329 340.88 116.329C337.334 116.329 333.88 116.703 330.52 117.449C327.16 118.196 324.127 119.129 321.42 120.249C320.207 119.409 319.18 118.149 318.34 116.469C317.5 114.696 317.08 112.876 317.08 111.009C317.08 108.583 317.64 106.669 318.76 105.269C319.974 103.776 321.794 102.516 324.22 101.489C326.927 100.463 330.1 99.7161 333.74 99.2495C337.474 98.7828 340.974 98.5494 344.24 98.5494ZM389.453 134.669C389.453 128.509 390.386 123.189 392.253 118.709C394.119 114.136 396.686 110.356 399.953 107.369C403.313 104.383 407.186 102.189 411.573 100.789C416.053 99.2961 420.859 98.5494 425.993 98.5494C427.859 98.5494 429.679 98.7361 431.453 99.1095C433.226 99.3895 434.673 99.7628 435.793 100.229V77.5494C436.726 77.2694 438.219 76.9894 440.273 76.7095C442.326 76.3361 444.426 76.1495 446.573 76.1495C448.626 76.1495 450.446 76.2894 452.033 76.5694C453.713 76.8494 455.113 77.4094 456.233 78.2494C457.353 79.0894 458.193 80.2561 458.753 81.7494C459.313 83.1495 459.593 85.0161 459.593 87.3494V153.709C459.593 158.096 457.539 161.596 453.433 164.209C450.726 165.983 447.226 167.523 442.933 168.829C438.639 170.229 433.693 170.929 428.093 170.929C422.026 170.929 416.566 170.089 411.713 168.409C406.953 166.729 402.893 164.303 399.533 161.129C396.266 157.956 393.746 154.176 391.973 149.789C390.293 145.309 389.453 140.269 389.453 134.669ZM429.213 117.169C424.173 117.169 420.299 118.616 417.593 121.509C414.886 124.403 413.533 128.789 413.533 134.669C413.533 140.456 414.793 144.843 417.313 147.829C419.833 150.723 423.473 152.169 428.233 152.169C429.913 152.169 431.406 151.936 432.713 151.469C434.113 150.909 435.186 150.303 435.933 149.649V118.849C434.066 117.729 431.826 117.169 429.213 117.169ZM510.404 170.929C504.897 170.929 499.764 170.183 495.004 168.689C490.337 167.103 486.23 164.769 482.684 161.689C479.23 158.609 476.477 154.736 474.424 150.069C472.464 145.403 471.484 139.943 471.484 133.689C471.484 127.529 472.464 122.256 474.424 117.869C476.477 113.389 479.137 109.749 482.404 106.949C485.67 104.056 489.404 101.956 493.604 100.649C497.804 99.2494 502.097 98.5494 506.484 98.5494C511.43 98.5494 515.91 99.2961 519.924 100.789C524.03 102.283 527.53 104.336 530.424 106.949C533.41 109.563 535.697 112.689 537.284 116.329C538.964 119.969 539.804 123.936 539.804 128.229C539.804 131.403 538.917 133.829 537.144 135.509C535.37 137.189 532.897 138.263 529.724 138.729L495.144 143.909C496.17 146.989 498.27 149.323 501.444 150.909C504.617 152.403 508.257 153.149 512.364 153.149C516.19 153.149 519.784 152.683 523.144 151.749C526.597 150.723 529.397 149.556 531.544 148.249C533.037 149.183 534.297 150.489 535.324 152.169C536.35 153.849 536.864 155.623 536.864 157.489C536.864 161.689 534.904 164.816 530.984 166.869C527.997 168.456 524.637 169.529 520.904 170.089C517.17 170.649 513.67 170.929 510.404 170.929ZM506.484 115.909C504.244 115.909 502.284 116.283 500.604 117.029C499.017 117.776 497.71 118.756 496.684 119.969C495.657 121.089 494.864 122.396 494.304 123.889C493.837 125.289 493.557 126.736 493.464 128.229L517.404 124.309C517.124 122.443 516.097 120.576 514.324 118.709C512.55 116.843 509.937 115.909 506.484 115.909ZM587.24 170.929C581.733 170.929 576.6 170.183 571.84 168.689C567.173 167.103 563.066 164.769 559.52 161.689C556.066 158.609 553.313 154.736 551.26 150.069C549.3 145.403 548.32 139.943 548.32 133.689C548.32 127.529 549.3 122.256 551.26 117.869C553.313 113.389 555.973 109.749 559.24 106.949C562.506 104.056 566.24 101.956 570.44 100.649C574.64 99.2494 578.933 98.5494 583.32 98.5494C588.266 98.5494 592.746 99.2961 596.76 100.789C600.866 102.283 604.366 104.336 607.26 106.949C610.246 109.563 612.533 112.689 614.12 116.329C615.8 119.969 616.64 123.936 616.64 128.229C616.64 131.403 615.753 133.829 613.98 135.509C612.206 137.189 609.733 138.263 606.56 138.729L571.98 143.909C573.006 146.989 575.106 149.323 578.28 150.909C581.453 152.403 585.093 153.149 589.2 153.149C593.026 153.149 596.62 152.683 599.98 151.749C603.433 150.723 606.233 149.556 608.38 148.249C609.873 149.183 611.133 150.489 612.16 152.169C613.186 153.849 613.7 155.623 613.7 157.489C613.7 161.689 611.74 164.816 607.82 166.869C604.833 168.456 601.473 169.529 597.74 170.089C594.006 170.649 590.506 170.929 587.24 170.929ZM583.32 115.909C581.08 115.909 579.12 116.283 577.44 117.029C575.853 117.776 574.546 118.756 573.52 119.969C572.493 121.089 571.7 122.396 571.14 123.889C570.673 125.289 570.393 126.736 570.3 128.229L594.24 124.309C593.96 122.443 592.933 120.576 591.16 118.709C589.386 116.843 586.773 115.909 583.32 115.909Z" fill="white"/>
<path d="M43.8306 47.1652L46.7347 48.3218C59.5619 53.4304 65.8191 67.9703 60.7105 80.7976L26.8819 165.737L23.9778 164.581C11.1505 159.472 4.89338 144.932 10.002 132.105L43.8306 47.1652Z" fill="#DBB613"/>
<path d="M169.961 99.4619L172.865 100.619C185.693 105.727 191.95 120.267 186.841 133.094L153.013 218.034L150.108 216.877C137.281 211.769 131.024 197.229 136.133 184.402L169.961 99.4619Z" fill="#DBB613"/>
<path d="M100.753 139.135L103.657 140.292C116.484 145.401 122.741 159.941 117.633 172.768L83.804 257.708L80.8999 256.551C68.0727 251.442 61.8155 236.902 66.9241 224.075L100.753 139.135Z" fill="#DBB613"/>
<path d="M62.877 117.412L65.7811 118.568C78.6083 123.677 84.8655 138.217 79.7568 151.044L45.9283 235.984L43.0242 234.827C30.1969 229.719 23.9398 215.179 29.0484 202.351L62.877 117.412Z" fill="#DBB613"/>
<path d="M109.467 0.428955L112.371 1.58557C125.199 6.69422 131.456 21.2341 126.347 34.0614L92.5186 119.001L89.6145 117.844C76.7873 112.736 70.5301 98.1959 75.6387 85.3686L109.467 0.428955Z" fill="#DBB613"/>
<path d="M148.697 18.4194L151.601 19.576C164.428 24.6847 170.686 39.2246 165.577 52.0519L131.748 136.992L128.844 135.835C116.017 130.726 109.76 116.186 114.868 103.359L148.697 18.4194Z" fill="#DBB613"/>
<path d="M490.94 213.034V209.908C490.94 196.101 502.133 184.908 515.94 184.908H607.368V188.034C607.368 201.841 596.175 213.034 582.368 213.034H490.94Z" fill="white"/>
</svg>
