<svg width="196" height="259" viewBox="0 0 196 259" fill="none" xmlns="http://www.w3.org/2000/svg">
<path d="M43.2671 47.5054L46.1712 48.662C58.9985 53.7706 65.2556 68.3105 60.147 81.1378L26.3184 166.077L23.4143 164.921C10.5871 159.812 4.3299 145.272 9.43855 132.445L43.2671 47.5054Z" fill="#DBB613"/>
<path d="M169.397 99.8022L172.302 100.959C185.129 106.068 191.386 120.607 186.277 133.435L152.449 218.374L149.545 217.218C136.717 212.109 130.46 197.569 135.569 184.742L169.397 99.8022Z" fill="#DBB613"/>
<path d="M100.189 139.476L103.093 140.632C115.92 145.741 122.177 160.281 117.069 173.108L83.2403 258.048L80.3362 256.891C67.5089 251.782 61.2518 237.243 66.3604 224.415L100.189 139.476Z" fill="#DBB613"/>
<path d="M62.3135 117.752L65.2176 118.909C78.0449 124.017 84.302 138.557 79.1934 151.384L45.3648 236.324L42.4607 235.167C29.6334 230.059 23.3763 215.519 28.4849 202.692L62.3135 117.752Z" fill="#DBB613"/>
<path d="M108.904 0.769043L111.808 1.92566C124.635 7.03431 130.892 21.5742 125.784 34.4015L91.9552 119.341L89.051 118.185C76.2238 113.076 69.9666 98.536 75.0753 85.7087L108.904 0.769043Z" fill="#DBB613"/>
<path d="M148.134 18.7593L151.038 19.9159C163.865 25.0245 170.122 39.5645 165.014 52.3917L131.185 137.331L128.281 136.175C115.454 131.066 109.197 116.526 114.305 103.699L148.134 18.7593Z" fill="#DBB613"/>
</svg>
