<svg width="621" height="258" viewBox="0 0 621 258" fill="none" xmlns="http://www.w3.org/2000/svg">
<path d="M256.164 136.898V167.838C255.137 168.118 253.504 168.398 251.264 168.678C249.024 168.958 246.831 169.098 244.684 169.098C242.537 169.098 240.624 168.911 238.944 168.538C237.357 168.258 236.004 167.698 234.884 166.858C233.764 166.018 232.924 164.851 232.364 163.358C231.804 161.864 231.524 159.904 231.524 157.478V83.5578C232.551 83.3712 234.184 83.1378 236.424 82.8578C238.664 82.4845 240.811 82.2978 242.864 82.2978C245.011 82.2978 246.877 82.4845 248.464 82.8578C250.144 83.1378 251.544 83.6978 252.664 84.5378C253.784 85.3778 254.624 86.5445 255.184 88.0378C255.744 89.5312 256.024 91.4912 256.024 93.9178V116.178L285.144 82.7178C291.491 82.7178 296.017 83.9312 298.724 86.3578C301.524 88.6912 302.924 91.4912 302.924 94.7578C302.924 97.1845 302.317 99.4712 301.104 101.618C299.891 103.764 297.931 106.191 295.224 108.898L277.724 126.398C280.057 129.011 282.484 131.718 285.004 134.518C287.617 137.224 290.137 139.931 292.564 142.638C295.084 145.251 297.464 147.771 299.704 150.198C302.037 152.624 304.044 154.771 305.724 156.638C305.724 158.691 305.351 160.511 304.604 162.098C303.857 163.684 302.831 165.038 301.524 166.158C300.311 167.278 298.911 168.118 297.324 168.678C295.737 169.238 294.057 169.518 292.284 169.518C288.457 169.518 285.331 168.584 282.904 166.718C280.477 164.758 278.144 162.471 275.904 159.858L256.164 136.898ZM344.957 153.278C346.544 153.278 348.27 153.138 350.137 152.858C352.097 152.484 353.544 152.018 354.477 151.458V140.258L344.397 141.098C341.784 141.284 339.637 141.844 337.957 142.778C336.277 143.711 335.437 145.111 335.437 146.978C335.437 148.844 336.137 150.384 337.537 151.598C339.03 152.718 341.504 153.278 344.957 153.278ZM343.837 98.2578C348.877 98.2578 353.45 98.7712 357.557 99.7978C361.757 100.824 365.304 102.411 368.197 104.558C371.184 106.611 373.47 109.271 375.057 112.538C376.644 115.711 377.437 119.491 377.437 123.878V155.238C377.437 157.664 376.737 159.671 375.337 161.258C374.03 162.751 372.444 164.058 370.577 165.178C364.51 168.818 355.97 170.638 344.957 170.638C340.01 170.638 335.53 170.171 331.517 169.238C327.597 168.304 324.19 166.904 321.297 165.038C318.497 163.171 316.304 160.791 314.717 157.898C313.224 155.004 312.477 151.644 312.477 147.818C312.477 141.378 314.39 136.431 318.217 132.978C322.044 129.524 327.97 127.378 335.997 126.538L354.337 124.578V123.598C354.337 120.891 353.124 118.978 350.697 117.858C348.364 116.644 344.957 116.038 340.477 116.038C336.93 116.038 333.477 116.411 330.117 117.158C326.757 117.904 323.724 118.838 321.017 119.958C319.804 119.118 318.777 117.858 317.937 116.178C317.097 114.404 316.677 112.584 316.677 110.718C316.677 108.291 317.237 106.378 318.357 104.978C319.57 103.484 321.39 102.224 323.817 101.198C326.524 100.171 329.697 99.4245 333.337 98.9578C337.07 98.4912 340.57 98.2578 343.837 98.2578ZM389.049 134.378C389.049 128.218 389.983 122.898 391.849 118.418C393.716 113.844 396.283 110.064 399.549 107.078C402.909 104.091 406.783 101.898 411.169 100.498C415.649 99.0045 420.456 98.2578 425.589 98.2578C427.456 98.2578 429.276 98.4445 431.049 98.8178C432.823 99.0978 434.269 99.4712 435.389 99.9378V77.2578C436.323 76.9778 437.816 76.6978 439.869 76.4178C441.923 76.0445 444.023 75.8578 446.169 75.8578C448.223 75.8578 450.043 75.9978 451.629 76.2778C453.309 76.5578 454.709 77.1178 455.829 77.9578C456.949 78.7978 457.789 79.9645 458.349 81.4578C458.909 82.8578 459.189 84.7245 459.189 87.0578V153.418C459.189 157.804 457.136 161.304 453.029 163.918C450.323 165.691 446.823 167.231 442.529 168.538C438.236 169.938 433.289 170.638 427.689 170.638C421.623 170.638 416.163 169.798 411.309 168.118C406.549 166.438 402.489 164.011 399.129 160.838C395.863 157.664 393.343 153.884 391.569 149.498C389.889 145.018 389.049 139.978 389.049 134.378ZM428.809 116.878C423.769 116.878 419.896 118.324 417.189 121.218C414.483 124.111 413.129 128.498 413.129 134.378C413.129 140.164 414.389 144.551 416.909 147.538C419.429 150.431 423.069 151.878 427.829 151.878C429.509 151.878 431.003 151.644 432.309 151.178C433.709 150.618 434.783 150.011 435.529 149.358V118.558C433.663 117.438 431.423 116.878 428.809 116.878ZM510 170.638C504.494 170.638 499.36 169.891 494.6 168.398C489.934 166.811 485.827 164.478 482.28 161.398C478.827 158.318 476.074 154.444 474.02 149.778C472.06 145.111 471.08 139.651 471.08 133.398C471.08 127.238 472.06 121.964 474.02 117.578C476.074 113.098 478.734 109.458 482 106.658C485.267 103.764 489 101.664 493.2 100.358C497.4 98.9578 501.694 98.2578 506.08 98.2578C511.027 98.2578 515.507 99.0045 519.52 100.498C523.627 101.991 527.127 104.044 530.02 106.658C533.007 109.271 535.294 112.398 536.88 116.038C538.56 119.678 539.4 123.644 539.4 127.938C539.4 131.111 538.514 133.538 536.74 135.218C534.967 136.898 532.494 137.971 529.32 138.438L494.74 143.618C495.767 146.698 497.867 149.031 501.04 150.618C504.214 152.111 507.854 152.858 511.96 152.858C515.787 152.858 519.38 152.391 522.74 151.458C526.194 150.431 528.994 149.264 531.14 147.958C532.634 148.891 533.894 150.198 534.92 151.878C535.947 153.558 536.46 155.331 536.46 157.198C536.46 161.398 534.5 164.524 530.58 166.578C527.594 168.164 524.234 169.238 520.5 169.798C516.767 170.358 513.267 170.638 510 170.638ZM506.08 115.618C503.84 115.618 501.88 115.991 500.2 116.738C498.614 117.484 497.307 118.464 496.28 119.678C495.254 120.798 494.46 122.104 493.9 123.598C493.434 124.998 493.154 126.444 493.06 127.938L517 124.018C516.72 122.151 515.694 120.284 513.92 118.418C512.147 116.551 509.534 115.618 506.08 115.618ZM586.836 170.638C581.33 170.638 576.196 169.891 571.436 168.398C566.77 166.811 562.663 164.478 559.116 161.398C555.663 158.318 552.91 154.444 550.856 149.778C548.896 145.111 547.916 139.651 547.916 133.398C547.916 127.238 548.896 121.964 550.856 117.578C552.91 113.098 555.57 109.458 558.836 106.658C562.103 103.764 565.836 101.664 570.036 100.358C574.236 98.9578 578.53 98.2578 582.916 98.2578C587.863 98.2578 592.343 99.0045 596.356 100.498C600.463 101.991 603.963 104.044 606.856 106.658C609.843 109.271 612.13 112.398 613.716 116.038C615.396 119.678 616.236 123.644 616.236 127.938C616.236 131.111 615.35 133.538 613.576 135.218C611.803 136.898 609.33 137.971 606.156 138.438L571.576 143.618C572.603 146.698 574.703 149.031 577.876 150.618C581.05 152.111 584.69 152.858 588.796 152.858C592.623 152.858 596.216 152.391 599.576 151.458C603.03 150.431 605.83 149.264 607.976 147.958C609.47 148.891 610.73 150.198 611.756 151.878C612.783 153.558 613.296 155.331 613.296 157.198C613.296 161.398 611.336 164.524 607.416 166.578C604.43 168.164 601.07 169.238 597.336 169.798C593.603 170.358 590.103 170.638 586.836 170.638ZM582.916 115.618C580.676 115.618 578.716 115.991 577.036 116.738C575.45 117.484 574.143 118.464 573.116 119.678C572.09 120.798 571.296 122.104 570.736 123.598C570.27 124.998 569.99 126.444 569.896 127.938L593.836 124.018C593.556 122.151 592.53 120.284 590.756 118.418C588.983 116.551 586.37 115.618 582.916 115.618Z" fill="black"/>
<path d="M43.4272 46.8735L46.3314 48.0301C59.1586 53.1388 65.4158 67.6787 60.3071 80.506L26.4786 165.446L23.5745 164.289C10.7472 159.18 4.49006 144.64 9.59871 131.813L43.4272 46.8735Z" fill="black"/>
<path d="M169.558 99.1703L172.462 100.327C185.289 105.436 191.546 119.975 186.438 132.803L152.609 217.742L149.705 216.586C136.878 211.477 130.621 196.937 135.729 184.11L169.558 99.1703Z" fill="black"/>
<path d="M100.349 138.844L103.253 140C116.081 145.109 122.338 159.649 117.229 172.476L83.4007 257.416L80.4966 256.259C67.6693 251.151 61.4122 236.611 66.5208 223.784L100.349 138.844Z" fill="black"/>
<path d="M62.4736 117.12L65.3778 118.277C78.205 123.385 84.4622 137.925 79.3535 150.753L45.525 235.692L42.6209 234.536C29.7936 229.427 23.5364 214.887 28.6451 202.06L62.4736 117.12Z" fill="black"/>
<path d="M109.064 0.137329L111.968 1.29394C124.795 6.40259 131.052 20.9425 125.944 33.7698L92.1153 118.709L89.2112 117.553C76.3839 112.444 70.1268 97.9043 75.2354 85.077L109.064 0.137329Z" fill="black"/>
<path d="M148.294 18.1278L151.198 19.2844C164.025 24.3931 170.282 38.933 165.174 51.7602L131.345 136.7L128.441 135.543C115.614 130.435 109.357 115.895 114.465 103.067L148.294 18.1278Z" fill="black"/>
<path d="M490.537 212.742V209.616C490.537 195.809 501.73 184.616 515.537 184.616H606.965V187.742C606.965 201.55 595.772 212.742 581.965 212.742H490.537Z" fill="black"/>
</svg>
