<svg width="621" height="258" viewBox="0 0 621 258" fill="none" xmlns="http://www.w3.org/2000/svg">
<path d="M256.56 137.189V168.129C255.533 168.409 253.9 168.689 251.66 168.969C249.42 169.249 247.226 169.389 245.08 169.389C242.933 169.389 241.02 169.203 239.34 168.829C237.753 168.549 236.4 167.989 235.28 167.149C234.16 166.309 233.32 165.143 232.76 163.649C232.2 162.156 231.92 160.196 231.92 157.769V83.8495C232.946 83.6628 234.58 83.4294 236.82 83.1495C239.06 82.7761 241.206 82.5895 243.26 82.5895C245.406 82.5895 247.273 82.7761 248.86 83.1495C250.54 83.4294 251.94 83.9894 253.06 84.8294C254.18 85.6694 255.02 86.8361 255.58 88.3295C256.14 89.8228 256.42 91.7828 256.42 94.2095V116.469L285.54 83.0094C291.886 83.0094 296.413 84.2228 299.12 86.6494C301.92 88.9828 303.32 91.7828 303.32 95.0494C303.32 97.4761 302.713 99.7628 301.5 101.909C300.286 104.056 298.326 106.483 295.62 109.189L278.12 126.689C280.453 129.303 282.88 132.009 285.4 134.809C288.013 137.516 290.533 140.223 292.96 142.929C295.48 145.543 297.86 148.063 300.1 150.489C302.433 152.916 304.44 155.063 306.12 156.929C306.12 158.983 305.746 160.803 305 162.389C304.253 163.976 303.226 165.329 301.92 166.449C300.706 167.569 299.306 168.409 297.72 168.969C296.133 169.529 294.453 169.809 292.68 169.809C288.853 169.809 285.726 168.876 283.3 167.009C280.873 165.049 278.54 162.763 276.3 160.149L256.56 137.189ZM345.353 153.569C346.939 153.569 348.666 153.429 350.533 153.149C352.493 152.776 353.939 152.309 354.873 151.749V140.549L344.793 141.389C342.179 141.576 340.033 142.136 338.353 143.069C336.673 144.003 335.833 145.403 335.833 147.269C335.833 149.136 336.533 150.676 337.933 151.889C339.426 153.009 341.899 153.569 345.353 153.569ZM344.233 98.5494C349.273 98.5494 353.846 99.0628 357.953 100.089C362.153 101.116 365.699 102.703 368.593 104.849C371.579 106.903 373.866 109.563 375.453 112.829C377.039 116.003 377.833 119.783 377.833 124.169V155.529C377.833 157.956 377.133 159.963 375.733 161.549C374.426 163.043 372.839 164.349 370.973 165.469C364.906 169.109 356.366 170.929 345.353 170.929C340.406 170.929 335.926 170.463 331.913 169.529C327.993 168.596 324.586 167.196 321.693 165.329C318.893 163.463 316.699 161.083 315.113 158.189C313.619 155.296 312.873 151.936 312.873 148.109C312.873 141.669 314.786 136.723 318.613 133.269C322.439 129.816 328.366 127.669 336.393 126.829L354.733 124.869V123.889C354.733 121.183 353.519 119.269 351.093 118.149C348.759 116.936 345.353 116.329 340.873 116.329C337.326 116.329 333.873 116.703 330.513 117.449C327.153 118.196 324.119 119.129 321.413 120.249C320.199 119.409 319.173 118.149 318.333 116.469C317.493 114.696 317.073 112.876 317.073 111.009C317.073 108.583 317.633 106.669 318.753 105.269C319.966 103.776 321.786 102.516 324.213 101.489C326.919 100.463 330.093 99.7161 333.733 99.2495C337.466 98.7828 340.966 98.5494 344.233 98.5494ZM389.445 134.669C389.445 128.509 390.378 123.189 392.245 118.709C394.112 114.136 396.678 110.356 399.945 107.369C403.305 104.383 407.178 102.189 411.565 100.789C416.045 99.2961 420.852 98.5494 425.985 98.5494C427.852 98.5494 429.672 98.7361 431.445 99.1095C433.218 99.3895 434.665 99.7628 435.785 100.229V77.5494C436.718 77.2694 438.212 76.9894 440.265 76.7095C442.318 76.3361 444.418 76.1495 446.565 76.1495C448.618 76.1495 450.438 76.2894 452.025 76.5694C453.705 76.8494 455.105 77.4094 456.225 78.2494C457.345 79.0894 458.185 80.2561 458.745 81.7494C459.305 83.1495 459.585 85.0161 459.585 87.3494V153.709C459.585 158.096 457.532 161.596 453.425 164.209C450.718 165.983 447.218 167.523 442.925 168.829C438.632 170.229 433.685 170.929 428.085 170.929C422.018 170.929 416.558 170.089 411.705 168.409C406.945 166.729 402.885 164.303 399.525 161.129C396.258 157.956 393.738 154.176 391.965 149.789C390.285 145.309 389.445 140.269 389.445 134.669ZM429.205 117.169C424.165 117.169 420.292 118.616 417.585 121.509C414.878 124.403 413.525 128.789 413.525 134.669C413.525 140.456 414.785 144.843 417.305 147.829C419.825 150.723 423.465 152.169 428.225 152.169C429.905 152.169 431.398 151.936 432.705 151.469C434.105 150.909 435.178 150.303 435.925 149.649V118.849C434.058 117.729 431.818 117.169 429.205 117.169ZM510.396 170.929C504.89 170.929 499.756 170.183 494.996 168.689C490.33 167.103 486.223 164.769 482.676 161.689C479.223 158.609 476.47 154.736 474.416 150.069C472.456 145.403 471.476 139.943 471.476 133.689C471.476 127.529 472.456 122.256 474.416 117.869C476.47 113.389 479.13 109.749 482.396 106.949C485.663 104.056 489.396 101.956 493.596 100.649C497.796 99.2494 502.09 98.5494 506.476 98.5494C511.423 98.5494 515.903 99.2961 519.916 100.789C524.023 102.283 527.523 104.336 530.416 106.949C533.403 109.563 535.69 112.689 537.276 116.329C538.956 119.969 539.796 123.936 539.796 128.229C539.796 131.403 538.91 133.829 537.136 135.509C535.363 137.189 532.89 138.263 529.716 138.729L495.136 143.909C496.163 146.989 498.263 149.323 501.436 150.909C504.61 152.403 508.25 153.149 512.356 153.149C516.183 153.149 519.776 152.683 523.136 151.749C526.59 150.723 529.39 149.556 531.536 148.249C533.03 149.183 534.29 150.489 535.316 152.169C536.343 153.849 536.856 155.623 536.856 157.489C536.856 161.689 534.896 164.816 530.976 166.869C527.99 168.456 524.63 169.529 520.896 170.089C517.163 170.649 513.663 170.929 510.396 170.929ZM506.476 115.909C504.236 115.909 502.276 116.283 500.596 117.029C499.01 117.776 497.703 118.756 496.676 119.969C495.65 121.089 494.856 122.396 494.296 123.889C493.83 125.289 493.55 126.736 493.456 128.229L517.396 124.309C517.116 122.443 516.09 120.576 514.316 118.709C512.543 116.843 509.93 115.909 506.476 115.909ZM587.232 170.929C581.726 170.929 576.592 170.183 571.832 168.689C567.166 167.103 563.059 164.769 559.512 161.689C556.059 158.609 553.306 154.736 551.252 150.069C549.292 145.403 548.312 139.943 548.312 133.689C548.312 127.529 549.292 122.256 551.252 117.869C553.306 113.389 555.966 109.749 559.232 106.949C562.499 104.056 566.232 101.956 570.432 100.649C574.632 99.2494 578.926 98.5494 583.312 98.5494C588.259 98.5494 592.739 99.2961 596.752 100.789C600.859 102.283 604.359 104.336 607.252 106.949C610.239 109.563 612.526 112.689 614.112 116.329C615.792 119.969 616.632 123.936 616.632 128.229C616.632 131.403 615.746 133.829 613.972 135.509C612.199 137.189 609.726 138.263 606.552 138.729L571.972 143.909C572.999 146.989 575.099 149.323 578.272 150.909C581.446 152.403 585.086 153.149 589.192 153.149C593.019 153.149 596.612 152.683 599.972 151.749C603.426 150.723 606.226 149.556 608.372 148.249C609.866 149.183 611.126 150.489 612.152 152.169C613.179 153.849 613.692 155.623 613.692 157.489C613.692 161.689 611.732 164.816 607.812 166.869C604.826 168.456 601.466 169.529 597.732 170.089C593.999 170.649 590.499 170.929 587.232 170.929ZM583.312 115.909C581.072 115.909 579.112 116.283 577.432 117.029C575.846 117.776 574.539 118.756 573.512 119.969C572.486 121.089 571.692 122.396 571.132 123.889C570.666 125.289 570.386 126.736 570.292 128.229L594.232 124.309C593.952 122.443 592.926 120.576 591.152 118.709C589.379 116.843 586.766 115.909 583.312 115.909Z" fill="white"/>
<path d="M43.823 47.1652L46.7271 48.3218C59.5544 53.4304 65.8115 67.9703 60.7029 80.7976L26.8743 165.737L23.9702 164.581C11.143 159.472 4.88581 144.932 9.99446 132.105L43.823 47.1652Z" fill="white"/>
<path d="M169.954 99.4619L172.858 100.619C185.685 105.727 191.942 120.267 186.833 133.094L153.005 218.034L150.101 216.877C137.274 211.769 131.016 197.229 136.125 184.402L169.954 99.4619Z" fill="white"/>
<path d="M100.745 139.135L103.649 140.292C116.476 145.401 122.734 159.941 117.625 172.768L83.7965 257.708L80.8923 256.551C68.0651 251.442 61.8079 236.902 66.9166 224.075L100.745 139.135Z" fill="white"/>
<path d="M62.8694 117.412L65.7735 118.568C78.6008 123.677 84.8579 138.217 79.7493 151.044L45.9207 235.984L43.0166 234.827C30.1894 229.719 23.9322 215.179 29.0408 202.351L62.8694 117.412Z" fill="white"/>
<path d="M109.46 0.428955L112.364 1.58557C125.191 6.69422 131.448 21.2341 126.34 34.0614L92.5111 119.001L89.6069 117.844C76.7797 112.736 70.5225 98.1959 75.6312 85.3686L109.46 0.428955Z" fill="white"/>
<path d="M148.689 18.4194L151.594 19.576C164.421 24.6847 170.678 39.2246 165.569 52.0519L131.741 136.992L128.837 135.835C116.009 130.726 109.752 116.186 114.861 103.359L148.689 18.4194Z" fill="white"/>
<path d="M490.932 213.034V209.908C490.932 196.101 502.125 184.908 515.932 184.908H607.361V188.034C607.361 201.841 596.168 213.034 582.361 213.034H490.932Z" fill="white"/>
</svg>
