<svg width="196" height="259" viewBox="0 0 196 259" fill="none" xmlns="http://www.w3.org/2000/svg">
<path d="M43.4058 47.5054L46.3099 48.662C59.1371 53.7706 65.3943 68.3105 60.2856 81.1378L26.4571 166.077L23.553 164.921C10.7257 159.812 4.46858 145.272 9.57722 132.445L43.4058 47.5054Z" fill="black"/>
<path d="M169.536 99.8018L172.44 100.958C185.268 106.067 191.525 120.607 186.416 133.434L152.587 218.374L149.683 217.217C136.856 212.109 130.599 197.569 135.708 184.741L169.536 99.8018Z" fill="black"/>
<path d="M100.328 139.476L103.232 140.632C116.059 145.741 122.316 160.281 117.208 173.108L83.379 258.048L80.4749 256.891C67.6476 251.782 61.3905 237.243 66.4991 224.415L100.328 139.476Z" fill="black"/>
<path d="M62.4521 117.752L65.3563 118.909C78.1835 124.017 84.4407 138.557 79.332 151.384L45.5035 236.324L42.5994 235.167C29.7721 230.059 23.515 215.519 28.6236 202.692L62.4521 117.752Z" fill="black"/>
<path d="M109.042 0.769043L111.947 1.92566C124.774 7.03431 131.031 21.5742 125.922 34.4015L92.0938 119.341L89.1897 118.185C76.3625 113.076 70.1053 98.536 75.2139 85.7087L109.042 0.769043Z" fill="black"/>
<path d="M148.272 18.7598L151.177 19.9164C164.004 25.025 170.261 39.5649 165.152 52.3922L131.324 137.332L128.42 136.175C115.592 131.067 109.335 116.527 114.444 103.699L148.272 18.7598Z" fill="black"/>
</svg>
