<svg width="621" height="258" viewBox="0 0 621 258" fill="none" xmlns="http://www.w3.org/2000/svg">
<path d="M256.567 136.898V167.838C255.541 168.118 253.907 168.398 251.667 168.678C249.427 168.958 247.234 169.098 245.087 169.098C242.941 169.098 241.027 168.911 239.347 168.538C237.761 168.258 236.407 167.698 235.287 166.858C234.167 166.018 233.327 164.851 232.767 163.358C232.207 161.864 231.927 159.904 231.927 157.478V83.5578C232.954 83.3712 234.587 83.1378 236.827 82.8578C239.067 82.4845 241.214 82.2978 243.267 82.2978C245.414 82.2978 247.281 82.4845 248.867 82.8578C250.547 83.1378 251.947 83.6978 253.067 84.5378C254.187 85.3778 255.027 86.5445 255.587 88.0378C256.147 89.5312 256.427 91.4912 256.427 93.9178V116.178L285.547 82.7178C291.894 82.7178 296.421 83.9312 299.127 86.3578C301.927 88.6912 303.327 91.4912 303.327 94.7578C303.327 97.1845 302.721 99.4712 301.507 101.618C300.294 103.764 298.334 106.191 295.627 108.898L278.127 126.398C280.461 129.011 282.887 131.718 285.407 134.518C288.021 137.224 290.541 139.931 292.967 142.638C295.487 145.251 297.867 147.771 300.107 150.198C302.441 152.624 304.447 154.771 306.127 156.638C306.127 158.691 305.754 160.511 305.007 162.098C304.261 163.684 303.234 165.038 301.927 166.158C300.714 167.278 299.314 168.118 297.727 168.678C296.141 169.238 294.461 169.518 292.687 169.518C288.861 169.518 285.734 168.584 283.307 166.718C280.881 164.758 278.547 162.471 276.307 159.858L256.567 136.898ZM345.36 153.278C346.947 153.278 348.674 153.138 350.54 152.858C352.5 152.484 353.947 152.018 354.88 151.458V140.258L344.8 141.098C342.187 141.284 340.04 141.844 338.36 142.778C336.68 143.711 335.84 145.111 335.84 146.978C335.84 148.844 336.54 150.384 337.94 151.598C339.434 152.718 341.907 153.278 345.36 153.278ZM344.24 98.2578C349.28 98.2578 353.854 98.7712 357.96 99.7978C362.16 100.824 365.707 102.411 368.6 104.558C371.587 106.611 373.874 109.271 375.46 112.538C377.047 115.711 377.84 119.491 377.84 123.878V155.238C377.84 157.664 377.14 159.671 375.74 161.258C374.434 162.751 372.847 164.058 370.98 165.178C364.914 168.818 356.374 170.638 345.36 170.638C340.414 170.638 335.934 170.171 331.92 169.238C328 168.304 324.594 166.904 321.7 165.038C318.9 163.171 316.707 160.791 315.12 157.898C313.627 155.004 312.88 151.644 312.88 147.818C312.88 141.378 314.794 136.431 318.62 132.978C322.447 129.524 328.374 127.378 336.4 126.538L354.74 124.578V123.598C354.74 120.891 353.527 118.978 351.1 117.858C348.767 116.644 345.36 116.038 340.88 116.038C337.334 116.038 333.88 116.411 330.52 117.158C327.16 117.904 324.127 118.838 321.42 119.958C320.207 119.118 319.18 117.858 318.34 116.178C317.5 114.404 317.08 112.584 317.08 110.718C317.08 108.291 317.64 106.378 318.76 104.978C319.974 103.484 321.794 102.224 324.22 101.198C326.927 100.171 330.1 99.4245 333.74 98.9578C337.474 98.4912 340.974 98.2578 344.24 98.2578ZM389.453 134.378C389.453 128.218 390.386 122.898 392.253 118.418C394.119 113.844 396.686 110.064 399.953 107.078C403.313 104.091 407.186 101.898 411.573 100.498C416.053 99.0045 420.859 98.2578 425.993 98.2578C427.859 98.2578 429.679 98.4445 431.453 98.8178C433.226 99.0978 434.673 99.4712 435.793 99.9378V77.2578C436.726 76.9778 438.219 76.6978 440.273 76.4178C442.326 76.0445 444.426 75.8578 446.573 75.8578C448.626 75.8578 450.446 75.9978 452.033 76.2778C453.713 76.5578 455.113 77.1178 456.233 77.9578C457.353 78.7978 458.193 79.9645 458.753 81.4578C459.313 82.8578 459.593 84.7245 459.593 87.0578V153.418C459.593 157.804 457.539 161.304 453.433 163.918C450.726 165.691 447.226 167.231 442.933 168.538C438.639 169.938 433.693 170.638 428.093 170.638C422.026 170.638 416.566 169.798 411.713 168.118C406.953 166.438 402.893 164.011 399.533 160.838C396.266 157.664 393.746 153.884 391.973 149.498C390.293 145.018 389.453 139.978 389.453 134.378ZM429.213 116.878C424.173 116.878 420.299 118.324 417.593 121.218C414.886 124.111 413.533 128.498 413.533 134.378C413.533 140.164 414.793 144.551 417.313 147.538C419.833 150.431 423.473 151.878 428.233 151.878C429.913 151.878 431.406 151.644 432.713 151.178C434.113 150.618 435.186 150.011 435.933 149.358V118.558C434.066 117.438 431.826 116.878 429.213 116.878ZM510.404 170.638C504.897 170.638 499.764 169.891 495.004 168.398C490.337 166.811 486.23 164.478 482.684 161.398C479.23 158.318 476.477 154.444 474.424 149.778C472.464 145.111 471.484 139.651 471.484 133.398C471.484 127.238 472.464 121.964 474.424 117.578C476.477 113.098 479.137 109.458 482.404 106.658C485.67 103.764 489.404 101.664 493.604 100.358C497.804 98.9578 502.097 98.2578 506.484 98.2578C511.43 98.2578 515.91 99.0045 519.924 100.498C524.03 101.991 527.53 104.044 530.424 106.658C533.41 109.271 535.697 112.398 537.284 116.038C538.964 119.678 539.804 123.644 539.804 127.938C539.804 131.111 538.917 133.538 537.144 135.218C535.37 136.898 532.897 137.971 529.724 138.438L495.144 143.618C496.17 146.698 498.27 149.031 501.444 150.618C504.617 152.111 508.257 152.858 512.364 152.858C516.19 152.858 519.784 152.391 523.144 151.458C526.597 150.431 529.397 149.264 531.544 147.958C533.037 148.891 534.297 150.198 535.324 151.878C536.35 153.558 536.864 155.331 536.864 157.198C536.864 161.398 534.904 164.524 530.984 166.578C527.997 168.164 524.637 169.238 520.904 169.798C517.17 170.358 513.67 170.638 510.404 170.638ZM506.484 115.618C504.244 115.618 502.284 115.991 500.604 116.738C499.017 117.484 497.71 118.464 496.684 119.678C495.657 120.798 494.864 122.104 494.304 123.598C493.837 124.998 493.557 126.444 493.464 127.938L517.404 124.018C517.124 122.151 516.097 120.284 514.324 118.418C512.55 116.551 509.937 115.618 506.484 115.618ZM587.24 170.638C581.733 170.638 576.6 169.891 571.84 168.398C567.173 166.811 563.066 164.478 559.52 161.398C556.066 158.318 553.313 154.444 551.26 149.778C549.3 145.111 548.32 139.651 548.32 133.398C548.32 127.238 549.3 121.964 551.26 117.578C553.313 113.098 555.973 109.458 559.24 106.658C562.506 103.764 566.24 101.664 570.44 100.358C574.64 98.9578 578.933 98.2578 583.32 98.2578C588.266 98.2578 592.746 99.0045 596.76 100.498C600.866 101.991 604.366 104.044 607.26 106.658C610.246 109.271 612.533 112.398 614.12 116.038C615.8 119.678 616.64 123.644 616.64 127.938C616.64 131.111 615.753 133.538 613.98 135.218C612.206 136.898 609.733 137.971 606.56 138.438L571.98 143.618C573.006 146.698 575.106 149.031 578.28 150.618C581.453 152.111 585.093 152.858 589.2 152.858C593.026 152.858 596.62 152.391 599.98 151.458C603.433 150.431 606.233 149.264 608.38 147.958C609.873 148.891 611.133 150.198 612.16 151.878C613.186 153.558 613.7 155.331 613.7 157.198C613.7 161.398 611.74 164.524 607.82 166.578C604.833 168.164 601.473 169.238 597.74 169.798C594.006 170.358 590.506 170.638 587.24 170.638ZM583.32 115.618C581.08 115.618 579.12 115.991 577.44 116.738C575.853 117.484 574.546 118.464 573.52 119.678C572.493 120.798 571.7 122.104 571.14 123.598C570.673 124.998 570.393 126.444 570.3 127.938L594.24 124.018C593.96 122.151 592.933 120.284 591.16 118.418C589.386 116.551 586.773 115.618 583.32 115.618Z" fill="black"/>
<path d="M43.8306 46.8735L46.7347 48.0301C59.5619 53.1388 65.8191 67.6787 60.7105 80.506L26.8819 165.446L23.9778 164.289C11.1505 159.18 4.89338 144.64 10.002 131.813L43.8306 46.8735Z" fill="#DBB613"/>
<path d="M169.961 99.1703L172.865 100.327C185.693 105.436 191.95 119.975 186.841 132.803L153.013 217.742L150.108 216.586C137.281 211.477 131.024 196.937 136.133 184.11L169.961 99.1703Z" fill="#DBB613"/>
<path d="M100.753 138.844L103.657 140C116.484 145.109 122.741 159.649 117.633 172.476L83.804 257.416L80.8999 256.259C68.0727 251.151 61.8155 236.611 66.9241 223.784L100.753 138.844Z" fill="#DBB613"/>
<path d="M62.877 117.12L65.7811 118.277C78.6083 123.385 84.8655 137.925 79.7568 150.753L45.9283 235.692L43.0242 234.536C30.1969 229.427 23.9398 214.887 29.0484 202.06L62.877 117.12Z" fill="#DBB613"/>
<path d="M109.467 0.137329L112.371 1.29394C125.199 6.40259 131.456 20.9425 126.347 33.7698L92.5186 118.709L89.6145 117.553C76.7873 112.444 70.5301 97.9043 75.6387 85.077L109.467 0.137329Z" fill="#DBB613"/>
<path d="M148.697 18.1278L151.601 19.2844C164.428 24.3931 170.686 38.933 165.577 51.7602L131.748 136.7L128.844 135.543C116.017 130.435 109.76 115.895 114.868 103.067L148.697 18.1278Z" fill="#DBB613"/>
<path d="M490.94 212.742V209.616C490.94 195.809 502.133 184.616 515.94 184.616H607.368V187.742C607.368 201.55 596.175 212.742 582.368 212.742H490.94Z" fill="black"/>
</svg>
